# xmcd
#
# Track frame offsets: 
#        150
#        11997
#        29355
#        42587
#        53396
#        62858
#        76113
#        87166
#        100003
#        110192
#        120604
#        133690
#
# Disc length: 1992 seconds
#
# Revision: 0
# Processed by: cddbd v1.5.1PL0 Copyright (c) Steve Scherf et al.
# Submitted via: ExactAudioCopy v0.95a5
#
DISCID=9b07c60c
DTITLE=Crystal Gayle - Her Very Best
DYEAR=2002
DGENRE=Country
TTITLE0=Don't It Make My Brown Eyes Blue
TTITLE1=You Never Miss A real Good Thing (Till He Says Goodbye)
TTITLE2=I'll Do It All Over Again
TTITLE3=Ready For The Times To Get Better
TTITLE4=Your Kisses Will
TTITLE5=Why Have You Left The One You Left Me For?
TTITLE6=Somebody Loves You
TTITLE7=When I Dream
TTITLE8=Wrong Road Again
TTITLE9=Your Old Cold Shoulder
TTITLE10=Talking In your Sleep
TTITLE11=I'll Get Over You
EXTD=
EXTT0=Don't It Make My Brown Eyes Blue
EXTT1=
EXTT2=
EXTT3=
EXTT4=
EXTT5=
EXTT6=
EXTT7=
EXTT8=
EXTT9=
EXTT10=
EXTT11=
PLAYORDER=
